<mxfile host="app.diagrams.net" agent="Mozilla/5.0 (Windows NT 10.0; Win64; x64) AppleWebKit/537.36 (KHTML, like Gecko) Chrome/130.0.0.0 Safari/537.36" version="24.8.4">
  <diagram name="페이지-1" id="ozurPF6umFmCbaMm7OU7">
    <mxGraphModel dx="1195" dy="650" grid="0" gridSize="10" guides="1" tooltips="1" connect="1" arrows="1" fold="1" page="1" pageScale="1" pageWidth="480" pageHeight="460" math="0" shadow="0">
      <root>
        <mxCell id="0" />
        <mxCell id="1" parent="0" />
        <mxCell id="y6Tww77BYueJzpExbN73-18" value="" style="group;fontSize=50;" vertex="1" connectable="0" parent="1">
          <mxGeometry width="480" height="460" as="geometry" />
        </mxCell>
        <mxCell id="y6Tww77BYueJzpExbN73-19" value="" style="shape=image;imageAspect=0;aspect=fixed;verticalLabelPosition=bottom;verticalAlign=top;image=data:image/jpeg,/9j/4AAQSkZJRgABAQEBLAEsAAD/4QCkRXhpZgAASUkqAAgAAAADAA4BAgBaAAAAMgAAABoBBQABAAAAjAAAABsBBQABAAAAlAAAAAAAAABWZWN0b3IgaWxsdXN0cmF0aW9uIG9mIGEgaGFuZCBkcmF3biBzYWQgc21hcnRwaG9uZSB3aXRoIHRlYXIgYWdhaW5zdCBhbiBvcmFuZ2UgYmFja2dyb3VuZC4sAQAAAQAAACwBAAABAAAA/+EFy2h0dHA6Ly9ucy5hZG9iZS5jb20veGFwLzEuMC8APD94cGFja2V0IGJlZ2luPSLvu78iIGlkPSJXNU0wTXBDZWhpSHpyZVN6TlRjemtjOWQiPz4KPHg6eG1wbWV0YSB4bWxuczp4PSJhZG9iZTpuczptZXRhLyI+Cgk8cmRmOlJERiB4bWxuczpyZGY9Imh0dHA6Ly93d3cudzMub3JnLzE5OTkvMDIvMjItcmRmLXN5bnRheC1ucyMiPgoJCTxyZGY6RGVzY3JpcHRpb24gcmRmOmFib3V0PSIiIHhtbG5zOnBob3Rvc2hvcD0iaHR0cDovL25zLmFkb2JlLmNvbS9waG90b3Nob3AvMS4wLyIgeG1sbnM6SXB0YzR4bXBDb3JlPSJodHRwOi8vaXB0Yy5vcmcvc3RkL0lwdGM0eG1wQ29yZS8xLjAveG1sbnMvIiAgIHhtbG5zOkdldHR5SW1hZ2VzR0lGVD0iaHR0cDovL3htcC5nZXR0eWltYWdlcy5jb20vZ2lmdC8xLjAvIiB4bWxuczpkYz0iaHR0cDovL3B1cmwub3JnL2RjL2VsZW1lbnRzLzEuMS8iIHhtbG5zOnBsdXM9Imh0dHA6Ly9ucy51c2VwbHVzLm9yZy9sZGYveG1wLzEuMC8iICB4bWxuczppcHRjRXh0PSJodHRwOi8vaXB0Yy5vcmcvc3RkL0lwdGM0eG1wRXh0LzIwMDgtMDItMjkvIiB4bWxuczp4bXBSaWdodHM9Imh0dHA6Ly9ucy5hZG9iZS5jb20veGFwLzEuMC9yaWdodHMvIiBwaG90b3Nob3A6Q3JlZGl0PSJHZXR0eSBJbWFnZXMiIEdldHR5SW1hZ2VzR0lGVDpBc3NldElEPSIxNDEyNTQwMjcxIiB4bXBSaWdodHM6V2ViU3RhdGVtZW50PSJodHRwczovL3d3dy5pc3RvY2twaG90by5jb20vbGVnYWwvbGljZW5zZS1hZ3JlZW1lbnQ/dXRtX21lZGl1bT1vcmdhbmljJmFtcDt1dG1fc291cmNlPWdvb2dsZSZhbXA7dXRtX2NhbXBhaWduPWlwdGN1cmwiIHBsdXM6RGF0YU1pbmluZz0iaHR0cDovL25zLnVzZXBsdXMub3JnL2xkZi92b2NhYi9ETUktUFJPSElCSVRFRC1FWENFUFRTRUFSQ0hFTkdJTkVJTkRFWElORyIgPgo8ZGM6Y3JlYXRvcj48cmRmOlNlcT48cmRmOmxpPkpha2VPbGltYjwvcmRmOmxpPjwvcmRmOlNlcT48L2RjOmNyZWF0b3I+PGRjOmRlc2NyaXB0aW9uPjxyZGY6QWx0PjxyZGY6bGkgeG1sOmxhbmc9IngtZGVmYXVsdCI+VmVjdG9yIGlsbHVzdHJhdGlvbiBvZiBhIGhhbmQgZHJhd24gc2FkIHNtYXJ0cGhvbmUgd2l0aCB0ZWFyIGFnYWluc3QgYW4gb3JhbmdlIGJhY2tncm91bmQuPC9yZGY6bGk+PC9yZGY6QWx0PjwvZGM6ZGVzY3JpcHRpb24+CjxwbHVzOkxpY2Vuc29yPjxyZGY6U2VxPjxyZGY6bGkgcmRmOnBhcnNlVHlwZT0nUmVzb3VyY2UnPjxwbHVzOkxpY2Vuc29yVVJMPmh0dHBzOi8vd3d3LmlzdG9ja3Bob3RvLmNvbS9waG90by9saWNlbnNlLWdtMTQxMjU0MDI3MS0/dXRtX21lZGl1bT1vcmdhbmljJmFtcDt1dG1fc291cmNlPWdvb2dsZSZhbXA7dXRtX2NhbXBhaWduPWlwdGN1cmw8L3BsdXM6TGljZW5zb3JVUkw+PC9yZGY6bGk+PC9yZGY6U2VxPjwvcGx1czpMaWNlbnNvcj4KCQk8L3JkZjpEZXNjcmlwdGlvbj4KCTwvcmRmOlJERj4KPC94OnhtcG1ldGE+Cjw/eHBhY2tldCBlbmQ9InciPz4K/+0AmlBob3Rvc2hvcCAzLjAAOEJJTQQEAAAAAAB+HAJQAAlKYWtlT2xpbWIcAngAWlZlY3RvciBpbGx1c3RyYXRpb24gb2YgYSBoYW5kIGRyYXduIHNhZCBzbWFydHBob25lIHdpdGggdGVhciBhZ2FpbnN0IGFuIG9yYW5nZSBiYWNrZ3JvdW5kLhwCbgAMR2V0dHkgSW1hZ2Vz/9sAQwAKBwcIBwYKCAgICwoKCw4YEA4NDQ4dFRYRGCMfJSQiHyIhJis3LyYpNCkhIjBBMTQ5Oz4+PiUuRElDPEg3PT47/9sAQwEKCwsODQ4cEBAcOygiKDs7Ozs7Ozs7Ozs7Ozs7Ozs7Ozs7Ozs7Ozs7Ozs7Ozs7Ozs7Ozs7Ozs7Ozs7Ozs7Ozs7/8IAEQgCZAJkAwERAAIRAQMRAf/EABsAAQACAwEBAAAAAAAAAAAAAAABBQIEBgMH/8QAGgEBAAMBAQEAAAAAAAAAAAAAAAEEBQMCBv/aAAwDAQACEAMQAAAB7MAAAAAAAAAAAAxifLl78ufvz5+/Lx7w8esPHrDz6x8zjHqIRExAJSTMZTGXqMvXnP359PXnPp59ffj16ePXrzz9+ZAAAAAAAAAAAAAAAAAAAAAAMYnw4ddfj11+HXw5dPPn7iAAAAAAAAAAAAGXqPftz9+vLY78tjvy9engAAAAAAAAAAAAAAAAAAePL3qVrGpW7a/DtEAAAAAAAAAAAAAAAAAPXp42bHHbs8NqzxymAAAAAAAAAAAAAAAMPHrRqWNKpZ8OPQAAAAAAAAAAAAAAAAAAAAZeo27PDeuVtmxxkAAAAAAAAAAAAHjy911G3pVLMQAAAAAAAAAAAAAAAAAAAAAAA9uvOxvVd23WmQAAAAAAAAAAw8zWZ9zRp2ogAAAAAAAAAAAAAAAAAAAAAAAAB7dfFpo0duzxAAAAAAAAAGrW7VGZf8/HoAAAAAAAAAAAAAAAAAAAAAAAAAADeuV7XRo5eoAAAAAAAAr6Nqrz7sQAAAAAAAAAAAAAAAAAAAAAAAAAAAA9+3O61c706eQAAAAAAK+jaqs66AAAAAAAAAAAAAAAAAAAAAAAAAAAAAPXr4vNfN9PfkAAAAADVrdqXK0YgAAAAAAAAAAAAAAAAAAAAAAAAAAAAABs2OV3rZsyAAAAAw8zQ4up5+PQAAAAAAAAAAAAAAAAAAAAAAAAAAAAAAFnoU7K/UAAAAAqc27oUrQAAAAAAAAAAAAAAAAAAAAAAAAAAAAAAAy9RfbOZ69PAAAAHjy90ONqRAAAAAAAAAAAAAAAAAAAAAAAAAAAAAAAADeuV7fToAAAAVGZe0adkAAAAAAAAAYyqrVev78fH35iQEIiWKIlAmIIIkQIJCcoZROcTsc/dnW72tbugAAAAAAAABMr/ay/Xp4AAAw8euexNWIAAAAAAAAAePvzx2vnYded0bJkZEmRkZGRJJkSSCQQQQYHiaBQm3X7ddlaGfmQAAAAAAAALC9VtdGkAABXUbVXnXQAAAAAAAAByWrn52uH0k9gAAAAAAAAAADVPmZtU7PT5l4AAAAAAAADP3HQ7eTMgABQ42n4cegAAAAAAAAHn6jgtzJ+nSuAAADyOHMQSCQSdSWYKcwLsAFIfNYd5h63p5kAAAAAAAAC51c/ctcAAPHl7oMXUAAAAAAAAAGj35cZsZv2MzAAAPI4cwAIBAOtLUHOmB0oAMT4+dXk6NlW7AAAAAAAAAbtuvcalAACuo26vOuAAAAAAAAACts8eT1s77GAAAAAAAAAAAAAfKS3zb11SsgAAAAAAAAZeo6LcyZkAKPI0dav2AAAAAAAAAFbZ48lrZ3ekAgEAEAEAAAgAAAkA5Et865fUbYAAAAAAAAAvNfO2bHEDGJ53C1ogAAAAAAAAAK6xx4/Xzvf3xSkAEoAAAmQBAAAAQA1/Ha/zr3QULYAAAAAAAAAsr9Sz0KYGtX7UeRogAAAAAAAAAV1jjx+vm9nsfNpAAAAAAAAAATEZx5AHL527Y5Wt0OfcAAAAAAAAAGzY43mvnAV1G3V51wAAAAAAAAACvscuO183s9j5pIAAAAAAAABDN5mIAA5jP3N7K1+jzrgAAAAAAAAAy9R0W5kzIU2VoadXuAAAAAAAAABod+XG7Gb2Wx83MwAAAAAAAAJiMo8yAADmc/b3MrX6TOugAAAAAAAAAX21me/XmOfxdTy5ewAAAAAAAAANHvy4zYzex2Pm8pgAAAAAAAIZPOUQAAAOaobW1lbHS5t0AAAAAAAAAC41KG7br4xPO4WtEAAAAAAAAAANLtz4vZzOx1/nMvXkAAAAAACYjKIlAAAAHN0NrYytjps26AAAAAAAAABZX6lnoU/Dj0ocbTAAAAAAAAAAGn258Vs5nYa/wA5n68gABDV59/b3z9PXgADKIyjzW8Lu10r7HvkAAAOcobPtl7HT5l4AAAAAAAAADctcLnVz9Or3psrQAAAAAAAAAAGp158TtZnX6/zvp68ADw59autera13x8degv5FnaogTDKPMoHL525o8bdpZoXdvM9/fIAAc7R2PTK2eozLwAAAAAAAAAHv2532zmV9G1VZ10AAAAAAAAAAavXxxG1l9frfO+nvwAOSyfoNjx02U1B1GnhbfauMojKPIA0ONuyzt3hSUW9rPv7uQABz1HYnL2Oqy74AAAAAAAAAGXqOi3cmrzrtfRtAAAAAAAAAADW6eOH28vrtb57198wBj59Uuds6vG1pHR6OLY96mUeZQABU1tCpo7GobXThZ2KF1bzQAOfo68Zez1eXfAAAAAAAAAAHR7uTU5t7SqWAAAAAAAAAABr9PPDbeV1ut897e+YAGvz609PS2enC4t52ceQAAMYmhp63h4631zK2enAAAc/S18cvZ6zKvgAAAAAAAAAC/2suqzb2rX7AAAAAAAAAADw6eeF28rrdX5/26cgAAhm8zEAAAAADX8dtj3xAGM+qGlq45Wx1mVoAAAAAAAAAAC82M2qzb3hx6AAAAAAAAAADx9+eE3MrrNX5/36cgAJiMo8yADCPWMT6evMoAAqa2hQ0tbrdP57398oTjPqJUdHUwytjrcrQAAAAAAAAAAFzq59XnXfLn7AAAAAAAAAAHl7jg9zJ6vVwNjpxAGUecogDCPVPV0aute1/HcZT53etW5t52/2qDCPXHZX0exHvas5/QX8nGZApKOn5Zez12ToAAAAAAAAAAC10qVbQuYeJAAAAAAAAAAHn6jgt3J6rUwNnrxExGURKABy2du6/jtb2c7e7Vs58+HjrWV7tZXvXdzMu7eXo8bXL5291xzHTh1erggZRFJS09fL2evydEAAAAAAAAAAb1ytp1bGPmQAAAAAAAAABh6jgd3J6nUwdrrwyiMo8gADV599j3yynyABqcrGEet7tVwj1y+du6fKxeXcy3uZ0wyjzKKOnqauZtdhkaIAAAAAAAAAA2O/Pw49IgAAAAAAAAAAMZcBvZHU6eDu9K0oAAAAAAAEGM+omYiZmMojKPIFJU09PL2+xyNEAAAAAAAAAAZ+4w8SAAAAAAAAAABEvn+9kdVpYG71rAAAAAAACJnB6SCGceZQAKWpp6OXtdlkaQAAAAAAAAAASQAAAAAAAAAAAS+f7uR1Olg7vaqAAAAAABjPrGZAmIyjzIABS1NLQzNvs8fSAAAAAAAAAAASQAAAAAAAAAAA+f72R1Glg73aqAAAAABCcZ9RIIZPOUQAABTVdKvy9vs8fSAAAAAAAAAAEyEQAAAAAAAAAAA4Ddyem08Hf7VAAAAABjPrGZAmIyiJQAABEzTVdKvy9ntMbTAAAAAAAAAAHr08YefWPmQAAAAAAAAAAOB3cnpNLCsO9MAAAAQnGZiZAyjzlEAAADCfUTNTU0K7L2e1xtMAAAAAAAAAAbdnh4cevn49AAAAAAAAAAAcHuZXQ6eDY96YAAAGMzjPoCYjKIlAAAEJxn1EhVVL9Zl7XbY2mAAAAAAAAAALK/U06tjx5ewAAAAAAAAAAOE3Mq/0sKysUgAAITjMxMgZRGUeQAABjPrGZAFXVv1WXtdvi6YAAAAAAAAAAuNShX0rWvw6gAAAAAAAAAAcLt5d5p4VpYogADGZxekhMMo8ygAACE4zMTIAFXVvVOXtdxi6gAAAAAAAAAAu9bOr6drUq9wAAAAAAAAAAOH28u50sO1s0ABBjPqJkDKIyjyAAAMZnGfQAAFZVvU+ZtdziagAAAAAAAAAAvdnM0aVrQp2QAAAAAAAAAAOI2su308S2s54EJwn0kEM48ygAACE4zMTIAAArK12my9vusTUAAAAAAAAAAHQ7mVoU7Vbn2wAAAAAAAAAAOJ2cy108S3tZwxn1jMgTEZR5kAAAxmcXpIAAACtrXaXM2u6w9UAAAAAAAAACZdHu5GlUs1GZeAAAAAAAAAAA4vZzbLTw7e1n4z6iQQyecogAACDGfUTIAAAAFdWuUeZt93h6oAAAAAAAAAHr089Bt5WtX7UeRogAAAAAAAAAAcZsZu9qYtvczwJiMoiUAAAQnCfSQAAAAArq1yizNvvMPVAAAAAAAAAA2bHG8187z8euew9UAAAAAAAAAADjtfOnQzLGxTAmIBMQAEJgifUAQAgJAAgGty76FS/3uFrAAAAAAAAAAb9ytbadGDncLWx8yAAAAAAAAAAOR1s/Rs8PckkAAAkEgkAkAkEgEg8TU8z3uFrAAAAAAAAAAWujSsL1UUeRpa1fqAAAAAAAAAAOW06O7crfQQAAAAAAAAAAAAc+fPfM97hawAAAAAAAAAF3r521Y4iqzbtfStAAAAAAAAAACku1qTSo/WTIAAAAAAAAAAAA445bj07XG0wAAAAAAAAAOi3cnP1A0qliny74AAAAAAAAAA8/UcLt5Xb+o6wAAAAAAAAAAAHifKy2z7l/QtgAAAAAAAAD16+Og2ssDy5++fxNQAAAAAAAAAACnuV+Y06HanVnoAAAAAAAAADEqjhTV49OzyNLPzIAAAAAAAAA3rle306AA5/E1PLn7AAAAAAAAAAAqLdfmtGlHvzYHoCAQQQQQQQQQQYkGJiQeZELWt36fNvevj0AAAAAAAAABb6dHeuVgBUZl7Rp2QAAAAAAAAAABjMV1jjqdfHn68yZRMxMkHOaNK9o2tnn0kQk0e3Kpt1+mzb0kxMwyT6eZ2uXT08yAAAAAAAAAAB0O3lenTyANOr3psrQAAAAAAAAAAAAAAACXz/AHcjsMnSsK/UAVNuvzWjS7vD1QAAAAAAAAAAAAAPftzvtnMAAxieew9XHzIAAAAAAAAAAAAAAA4Ddyety9CyrdgBVWuHM6VHu8PVAAAAAAAAAAAAAAs9CnZX6gAAp8u/pVLAAAAAAAAAAAAAAAA4LdyepzL9pV7gCqtcOY0qPeYeqAAAAAAAAAAAAABf7WX7dfAAA1a/akyNEAAAAAAAAAAAAAAAcHuZXT5t61q9wBV2uHLadDvcLWAAAAAAAAAAAAAGzY5XmvmgAAQUOLp+PLoAAAAAAAAAAAAAABwe5ldNm3rar3AFZZ4crqUO9wtYAAAAAAAAAAAAAXGpQ3bdcAAAaNOzUZl4AAAAAAAAAAAR6nGUTMCUA4nXyOho37SvYAFf34cxoZ3cY+xJMJiJhlEIAAAAAAAAAAevXxf7OXMgAABEKHG1PHl7AAAAAAAAAS8vfrD3OHoSAAImOO08e/p37OvaAGh2r81fze0ytoAAZeY9fEenPyAAAAAAAABb6lDet1wAAABqVu1Lk6IAAAAAAAAGt394+pAAA0uvCrsVa3vXiY6fP093l3AGh2r8zfze1ytoAAAe3Pz68vIAAAAAAAGx35XmxmyAAAAAVGZf0adgAAAAAAACJnVsewAAByWlke/jpZ8LNhwsZx6AhFXYq0dyj6efXW5uuAAAM/EbHHwAAAAAAAJlfbOZ7deYAAAAAx8zR5Gl4cegAAAAAAAHn09ePSYmQAAAAAOfu59XYq3dS7b1rmUSAABMRscfOXmAAAAAAABb6dHeuVgAAAAAB58/VHk6Xly9gAAAAAAAJYepx9TjLGZiUSJAAA1/fPOJ9fPsASiYTDLzGfmM/MIAAAAAAAC00adjeqAAAAAAADz8eqfL0Nav1AAAAAAAAAAAShIAAAAkRAAAAAAAAAAEyttKjvXKwAAAAAAAAiFdRt11G3j5kAAAAAAAAAAAAAAAAAAAAAAAAADY78rfTo+3XmAAAAAAAAAB5c/dbQuaVSxEAAAAAAAAAAAAAAAAAAAAAAAAPXr4sr9Pdt15AAAAAAAAAAAB5c/dfStaVSzh4kAAAAAAAAAAAAAAAAAAAAADZsct+5V3LVeZAAAAAAAAAAAAACIalbvp1bGpW74+ZAAAAAAAAAAAAAAAAAAA9+3PctV9y1X9uvgAAAAAAAAAAAAAAAARDX4dtWv21uHXw49cfMgAAAAAAAAAAAAAAevXxs9+Wz347Vjh6dPIAAAAAAAAAAAAAAAAAAAEQ8efTx49PHl08eXTy5+/Ln7x8yAAAAAAAAJl6e/Pp05+3Tx7deft25+/bln6gAAAAAAAAAAAAAAAAAAAAAAAACCPM+fj1h59YePXn49+HHp48uvlz94eZQmXp78e3Xn79uft155+vOXvz6e/OfrzMgAAAAAAAAAAAAAP/8QALhAAAAUBBwMFAAMBAQEAAAAAAAECAwRABRESFBUzNBMgMBAhMTJQFiIjYAYl/9oACAEBAAEFAqm8iBvNkDktjNkM2YzTgzDo6zg6ixiULz7bxiMY1jquDruDMuDNrGbBSkApDZglpP8APMyIHIbIHLIHJcMG6s6slGQJ9wgUtQKUgwTiFfjqdQkKlkFSHFAzM/xCcWkJlKIJkoMEZH+ApSUhUogp5a/yyMyCZSyCH0KrFuJQFylGDO/9BDq0BElJ1ClEknJJn+qh1TYbfSuldfJsKWpZ/rtSDSCMlFQvSLv223TbNCyWnzyHrv3W3DbUlRLT5X3emn95l3pq8ilElK1GtX78ZzySXLz/AOAI7jbXjR4XF4Ef8FGXhV4ZS710hmSSctJpIVabg1GQNQkDUZA1CQNQkDPyRnpIzsgZ2QM5IGbkDNvjNPjNPjMvjMvjMvjNPjNyBnZAKfIIJtN0g1aDLlM2rGjvUrCkzvOjddSy2/IW+pph19SLElqGgPjQHR/H3B/H1D+PmP4+P4+kfx9A/j7Y0BoaAyNAYGgRxoMcaDGGgxhoEcaBHGgMj+Ptg/8Az4csOUgONLaVGlrYNCiWmjir9++Ur2pJ73Ufs6Cc15ppDKKeRHaktzYaob9nP4XKNKsKiO8u55WNyjcVgbP3Oy2OjA73Fk22q3n8WvSRr0ka9IGvSBr8ga++NffEGYU1j0n2gmCmz7STO7bWj9eER4TbVjbo4ysTfa6rC3STTuiBJYUd7iCcbVYD+LQZI0GUNBlDQpQ0KUNClDQpYs+Hko/patnrmFZVnLiK7DK8nE9N2z1YolHGVc52y1e1JP4iNyrtAsM+yz/xo0nhV89shWJ2kn8RJ3K16MNejDXow1+ONfjjX4419ga+wNfYGvsjX2Rr7I19ka+yNfaGvtDX2hr7Q19oa+0NfaGvtDX2hr7Q19oa+yNfZEt4pEqy/rSMKxNepncRnedJP4Y6Do6Do6Doy7wy7wy7wy7wy7wy7wyzwyzwyzwyzwyzwyzwyzwyzwyzwyzwyzwyzwyzwyzwyzwyr4yr4yr4Uk0Ksr4pIh9kg7maWfw6ybyrKpY53Pess/alncOsncmy/tSEdx+sk73aWbxAXxVTuTZf3pWjva9HTvdpZvEBfFDd4Z/IsvdpYp/5A/YqaZxAn61U/kWXvUsQ/cPHc1TS+KEfTvXJaQELS4ntu9HJrba23m3S8Fob9mb9LGP/AFEk/wDKmlcUI2+xx5toLnhbzjnpBQpCO+RGcbURmRtT1JDbyHS7rQ3rM5FKydzol/Wmk8YN7fY9f1osN2W5Os9UEhGc6jPpd2y3ekymxo64YIzI2JqsXbaG7ZnJpU+yhL+1NI4wa2uzCkzW67DmSZb0tYhJNLHfaCTNopT5MiOz13GoGFzttHds3k0yfdMrdpn+OGtntdZS8k4Dl7UEiO7wGRKJ2AojTBeM2GEsJ7rR3LN5VM1tSN6me2Azs0iXm1r7LxaH3s7lUzGy9vUz2yGNjxmpJDqI75sjASVGhTThOt9lofazuXTRtlzcpnNoR9jsu7FKJBO2gFyHV+pKNIbmvIDMtt31WrAhajWt6M4w3AdwuX9lofNn8umjH/mr70y9sR+P4Ji1KfbZW6bdnkCiMEMuyFQmVB2AtIuuOFIUpQmcUrr7Wlxn4kfketwtEWfy6Zk7kH80yvoI3HF3e5HbdNKSSXa9HQ8TEVLHopJKS9GW0YhxzSfZaIgcymQftTn9RF49JcXpd2Wj8QOZTFUH8CJxqq0fiDzPzz+YfFqrR+sLl/nn9ofFqrR+kLl05/NOr7wuN5L/ADWh9IfLpkl7K+1O5uQeN57vHaG3E5VM0V6V7lO7uweN4b6GftROVTRyvbd3ad7egcfyXeG/tn7UXlU0Xaf3qd/kQOP3X0k/Zjcmmj7Mnep5HJs/Y8N3hv8ABP2Y/JpmdmXuU8nk2fs1U/YY5FMj2bl1EvlWdtel9RO2Gd+nlF/nTzOXZ2323Us7YZ3qVsr3BIK9mnm8yz/rVTuO1u0scr3gsr0U8/mRH0MjPMjPNDPMjPsjUGhqDQ1Boag0NQaGoNDUGhqDYz7Yz7Yz7Yz6Bn0DPoGoIGoIGoIGoIGoJGoJGoJGoJD8snm292liF/f0UVyqa0OWhpx0ZOSMlKGSlDJShkZQyMsZGWMjLGRljIyxkJYyEsZCWNPljT5g0+YNOmDTpg06YNNmDTZg02YNMmjTJo0yaNMmh2DJYQ3uUsQv6+j5XPU1pldIsJeGZVW0f/zm9yljlcz6Sy/tTWm3e1Fey8ojIyqbfe/rERjlUqSuT6SivbpnEE42tBtrsacS26h11DLcuQqVIsxn2pGixOerhYm6edF6pEZpVCtpJkhaXE0hmRB+04rBTbQdmqjx1SHEpJCaSKV7nY4WFynlQSdDjS2jQ4ts02nNSNWnDVpw1WaNVmjVJo1SaNTmjUpg1GYNQmDUJYz8sZ2UM5KGbkjNSBmHx1nR1XAZmY+QxAccDbaWkUsVNzfZKTcuoUklEuz2FA7LSNKGlDSiGlpGlpGlouDEBDrOltjS2hpjQ0xkS4bbDLacTumsDTWBp0cadHGnxwUKOQS2hFQhOFHZJTe1+CfzB4fZaXFZ361lOJ3tMryMrj/AV97P4nZaPFZ3q2InvlJuc/Ac3bO4nZaPFa3a1tOBvufRia/Ad3bO4vZaPEb3axhGN3wOowOV7u9ZvF7LQ4je5WRkYW/BJReiovIYiGMhjGMYxjDu9Z6ro+MxjMYzGMTlXxUffGMYxjGQxFTtoxr8TqOmukNYxH4DMiDnu5A2Oybxk/buxGCXSRm8KPE+3jRRmd/gdlNNGueswpalgkmo4rZtM9k3jF9vAg6JlvqL8khrCdU62snkQnVhEFtISlKS7HpyUBxxbpssrdX4E/NARXm0300eQyJROtm2qhNN4uu805xfVSlSzZgAiJJd5FeCK6hjs4S8y0EtLjZtqosJDAMBjCYuPwuModCG0Nl23GMJjAMJUTDF1CpJLJ1k26q4XELiFxC4hcQuIXFUERmbMfDSORgZGR/qtsqcDbSWypVtpWS4yk/pobUsNxkpqlNpWFxTCkqT+chhawiMhNcZXhUZCgqMsgaTT+QllagmIEtoR+H8hTDagcQHHcIGRl+ATS1AoqzCYqCCUJT+WbTZg4qAcQHGcBsuEMJlSE2swUdwwURQKIQKO2QJKS/VwkY6TY6DQyzYOMgGykgaCF3YSQTRGCjoMZVsZdsdFsYEFX//xAAuEQABAgQEBQQCAwEBAAAAAAABAAIDBBFAFDEyURASEyAwITNBUCJSBUJhYCP/2gAIAQMBAT8BuaEoQnn4Ql3rDHdYYbrDsXQYukzZcjdlyjZUHbRUC5G7Lps2XRZssOxYZqw3+oyzkYL9kWOHx9eAShBeUJbcoS7EIbR8XZaDmjBYfhGWHwUZd3wixwzH07YbnZBNltyhBYFSn0hY05hGXb8J0B4RBGf0AaXZJssf7JsJrfqyAc06Xack6C9t42G52SZLgZoCn2DobXZp8uRlcBpd6BMlwNX2r4bX5p8FzbWHBL01oaPT7iJAB9QiCPQ2UKDX1d92+GHhOaWmhsIMKv5H717A8UTmlpofNBh85+/iw+ceVo5jQJrQ0U/4CYh/2Hkl2UHN/wACRUUT28pp4obeZ1P+DmGVFfFLsoK2pNE6YaMkZlyxD113rEPXXeuu9dd+66z911n7rrP3XVfuuq/ddV+66r911H7rqP3XUfuuo/ddV+66r911n7rrvQmXfKbHac7Z7eV1PA0cxogKWjnBoqU+IX53UOKWIGoqLSZb6c3glm+vNax38zqXku+h5bRw5hRH074TeVto40Fb5pqK2kdtHd0NvM4C1jaDfQDVlpMNq2vdLNzNrH0X0tptCKindBFGWsfRfS2RtYwo/sAqUPS1j6OHWh/suvD/AGXXh/suvC/ZdeF+y68L9l14X7LEQt1iIW6xELdYiFusRC3WIhbrEQt1iIW6xELdYmFusTC3WJhbrEwt1iYW6xMLdYmFusTC3WJhfssTC/ZYmF+ya4OFQpb5tZkZHsgir7aPoNxXtk/ZClvm1jCrOyWGZto2g29e6S9lS3zakVFOyXH4W0bQeBzu5L2lLZm2iijzxhijRbRtB4HOyr4ZH2lLZm2mB+XAept4ug8HZ3cj7SltRtpkZHhCFXi3i6DwdqPgbLxHZBPY5ho7urwhyb3t5lEgvh6h4ZD21LaraYH4cJcfnbxNB4P1HtZBfE0hMkf3KZCYzIcJx7XOFPBAmWPAHyiAc1Fkmu9WeiiQnw9Q75D2ypbVbRRVh4S2Zt4mg8Ims9sGnTFOyZh8kSg417ZSF1InrxIB9Co8m2nMzukNBUvrtneo4S2Rt4mg8Ims9vMaUUq7mhDjOODongkXAPI4x43SbVRZ7mbRo7pDQVL67c5qX0W79J4RfcPdCiuhGoQnmfKizpPoxE+AEg1ChTzSPzTpyEMlGjOimp75DSVL67eJrKgaLd+k8I3uO8FfK6C9reYjtopHSVL67eNrKhaBbu0nhG9x3kDScl037d8nA5jzuTmhwoVFhmG7lPbIZFS+u3mNaZpFu7LhH913bXsa0uNAocj8vTIENmQ4loOafJwnf4osq+H65ji1vM6gTGhreUcJ6HVnPsqdkhk5QNdvMD8k3IW7suEx7rvDKMaIYIUSKyGPyKfPn+gRmox+ViIv7Js5FChzrHavRA1U5AaBzt4SnvDjH9o9lV/H/wBlA128UeqGVucuEx7p4V74ceJDFGlOcXGp7oMw+Fko0y6L6cGuLTUKDMMiD/eE3MBw5G9v8f8A2UDWLd49bg8Jn3Ta1PCvZ/H/ANlA9wW5upr3jY07a9v8fm5QfcH2M37xsKdle/8Aj83KDrH2BU37xs6+D+P1FQdYuBcHNTnvHy08tFIaioWsW7ihlcOzU571hXw04SOoqFrFvEPqmaRcOzKnfd8VLGR1lQtYt45/JQ9AuH6ip73fLXw07ZHWVD1i3mNag6BcP1FT3u99LSR1lQ9Yt4+tS+i4iayp/wBzup2V8NPBI+4oesW8XWVLabiJrKn/AHB2U7a2Ul7iZqFu/UVLfNxF1lT+scaeWnjkvcTNQuJY/lcRdZU/qHdXw08kl7qbqFs80aeEE/mLiNrKn8x5aeaT91N1C2jn8DwYaOFxH1lTUB0WnKsFFWCirBRVgYqwMVYGIsBEWAibrARN1gIm6wETdYB+6wL91gX7rAv3WBfusC/dYF+6wLt1gXbrAu3WBdusC7dYF26wLt1gXbqBKmG/mqm520yfx4tNRW3j671udtMn1A4wTVgt5kfletzto5q/jLH0It5lvpW9hCrxbONTXjLn8qW7hzCiIoaXks3+1rENGk9jDRwNxGhc3qLuGwvKAoKWswfxp2sNWg3ESDzeoTmludwyA52aa0NFBbTB/KnbLn8aXJAOaMBhWGG6w3+rDf6sN/qww3WGG6ww34MgBzarDN3WGasM1YZqiwQxtQmiposOxYdiw7F0GLoMXRZsg0DK4eeZ1e2A6j/o4OgdsxoTNQvoruVh7gaGqBqK/QnNQNHbMaE3UL6Zd8d8u6rafQuzUvo7ZjQm6hfRHczq98F3K/6F2oqX0dsxoTc72M7lZ4YbuZtfoHaipfR2x9Cbnex3VdTwy76Gl1RUVFRUVE/UVLaFRUVFRTA/80M1RUVFRUt3u5W18cN/O2trRU8FaJ2oqW0dsx7aGffRUtI76mnjgv5XXj4zGJ0y45IuLs0ATkoLCxnr2zHtoZ+E2UV/I3ywIlRQ3b2ODk2XeU2WaM0ABl2xJkDSnPLs1Dhl59PCbEmnqoj+c18oNDUKG8PFlXzzLjzUQBPoFDlvlyApdRovN6DztcWmoTHh49LOqqqqvifDa/NNYG5d9VVVso0b+rbFri01ChxQ/wC5Jpmosbm9BaQ5j4cgQcvtnxWsT4hfnbNeW5JkwDn9m57W5p8cnK6a9zck2ZH9kHB2X1zozGp0dxyvq0TY7gmzDTmgQcvqHRWN+U6Z2TojnZ/SCM8ITO4QjMKBBy+gMRozKMw34RmHfCL3Oz+rEV4+UJhyEzuEJhiEVh+VzA2he0fKMdm6My1GZPwEY7yi4nP7WpXUfuus/dYh6Ew5CKUHlV7C5GIUY7liHrrvXVfuud29/wD/xAAuEQABAgQEBQUAAgMBAAAAAAABAAIDBBFAEjEyURATFCAzISIwQVBCUiNgYXH/2gAIAQIBAT8BuSQM0Y0MfaM1DRnB9BGcOy6uIupibrnxN1zX7rG7dVPbUrEVzH7rnRN11ETddVEQm37ITm4Qm2ITEM/aERpyP55IGadMQx9ozg+gjNRCjFeczdhxGRQmIg+0Jx32EJthzTYrHZH8d0VjcynTg/iE6YiH7RJOf4jYj25FNm3DNNmmHNAg5fgOe1uafNj+KdGe7M/lhxGSZNPGaZMMdePitZmnzTjpRJOf6DIr2ZKHNNOq4c4NFSok0T6NWf6jIrmZKFMNf6WsWOGen2nvc81P7EKZLfRyDg4VFlHmKe1v7cKKYZ9Ex4eKiwmI9Pa392HEMM1CY8PFR80eLgHpn+/Ai8s/8+Vzg0VKe8vdU/6BKxf4H5JqJU4R/oINDUKG/G2vxRX4G1Wf+hSsSjsPxTT6uw2oFck2Vec0JRv2V0sNdLDXSw10sNdND2XTQ9l08PZdPD2XIh7LkQ9lyIey5MPZcmHsuTD2XKh7LlQ9lyYey5MPZciHsuRD2XTQ9kZRn0nyr25ettDfjbX4HuwtqiamtoxheaBQ4TYY9LqLAET/ANRBaaG0lH+uH4Jt/phtZaHhbXe8modRiFox2F1UDUV74zsTybRoqaXpFU4YTS0lXVZTuiuwsJtZcf5BfTIpEtJV1H07px3oG2st5BfTeoWjThNUPXtmHViG1lvIL6czFrLuxQx2E0FUTU1tZbyDhy37Llv2XKfsuU/Zcp+y5T9lyn7LlP2XKfsuU/Zcp+y5T9lyn7Lkv2XJfsuS/Zcl+y5L9lyX7Lkv2XJfsuS/Zcl+y5T9lyn7LlP2XKfsiCPQqc+rWTdmOyYdSGbaW8ovY+tTn1ay7qRB2Th9ALaX8gvY+tTmQtWmhr2TRrEtpfyC9mNanMhbQTWGOMU1eTbQPIOAyu5jWpzSLaUPspwJoK28DyDgMruY1qc0i2kzmOEY0hm3g+QcG5fA6Kxv2muDhUfA6O1pomva7L4ZjUpvQLaVP+ThNH/HbwfIODcu10Rrc06Z/qnRHOzPCXaQPX4IkJzTXgyYI1Jr2uy75nUpvRbQTSIOE4fQC3heQcG6R2xK4jXsguxN+CM/C3shxzk7umdSm9Fs00IPCcPqLeFrHBmkdtAo7aP4y4oz4Jge2vGGzGaJkvQ1PdM6gpvx27TUKb8lvD1jgzSO58MPHqjLOTJamr4SKp8uf4oQHlMhhg75nMKa8dvC8YUz5Dbw9Y4Q9AtQ9pNB3TWYU147eX8YUfyG3ZqHCHoHyVCxDfvjxKe0IGhqEx2IV7ZrMKa8dvK+NRdZt2ahwhaB8JIGadMf1RiOOZ4gkJsd4TIzXcSaCqJqa8Jd1DTtmvpTXjt5U+xP1G3bmOELQPhjOJemsLsk2W3QgsH0uWzZGAwp0u4ZcIEQk4TwjaDxhax2zP0pnxm3gGjUc7cZ8IWgfC6G12aAAy7nww9Q4QZwIqKJ8JzeECER7j2zP0pnxG3hn0uBnwg6BdzP0pnxG3BuoOgXcz9KY8R/Rg6BdzOQUx4z+gMlA0C7mcgo/jNwc7gZKBou5nIKP4zbtHonZ3DcgoGi7mdIUfxm3hCoUTWbhmkKX0XczpCjeM28sKsUbyG4ZpCl9F3M6VG8Zt5XxqY8huIegKX0XczpUXxm3lvGFNeS4haApfTdzOlRdBt4HjCmx7xcQfGFLabuZ0KJoNvDFGBTgyNxB8YUtpu5nQomg3E2PZcQPGFLZG7mdCfpNtDFXjhMCsM3Ev4wpXI3cxoT9JtpcViDhEFWkXEt4goMQMrVdQxdSxdSxdQxdQxdQ1dQ1dQ1dS1dS1dS1dS1dS1dS1dS1dS3ZdS3ZdS3ZdS3ZdS3ZdUNl1Q2XVDZdUNl1Q2XVDZRIwe2idpNtKD3E8XChIt5bx3rtJtpMehPGYFIht5Q+y9dpNtLCkMcZwe4G3lHUdS9jmkM2zRRoHGbFWVt2uwmqa4OFReTb/42sIYngdkVuJhFxLxsPtOV3FiiGKokk1NrKNq+vbEbheRcQZgs9HZJr2u9RcRJlrcvVOeXmptpRtGV7ZttHVuQSMk2ZiBCcOy6z/i6z/i6z/i6w7LrDsusO3CJMuY4ii6x2y6x2y6t+y6t6gR3RHUKcaNJXVxF1URdVEXVRF1MTddRE3Rc52ZuIbcLQO2abVlfw5jyHtlfIomg30FuJ4HcRUUThQ0/BGSmfIe2V8ifpN9Jtzd3zTKPr+C3SFNeTtlfIn6TfQm4GAd8wzEz8FmkKa8nbK+RO0m9l2Yn/DFZgfT8BmkKa8nbK+ROyN7Kswsrv8M1Dq3Fc0KwlYCsCwLAsCZpCmW1esAWALAFgCl20iI5LAsCwLAVhNvCZjdT44rMDqWoYsI+FuSmNXbB1o5d+EIstJWHhbiPxzELG30tAKfA2E5ybLj7QaBkiQM1Fdid6dsHWj8Lx92UCHjd8szCwnELIfC1wwp0doTo7jkiSc+1kAnNNaG5J7w0fC/KxAJNAoUPltp8rgHChUWEYZpZNdRVr80BopVEgZp8f+qrX4CaImtjLwcPuOfzvYHihUSGYZobPEVjWMLEFUfC17m5Jzi7PtqqhYwsaxGyl5enudYvYHihUWAYf/l1VVKqVUqpVSqlVKrbgEmgUGXw+rs7SLK/bEQR6H9aHAc9Q4TYeVs+G1+aiSrhp/TZCc/JQ5VrfV10+G1+afKH+Kcxzc/zmS73JkqxufrfEA5p0qw5J0q8ZItLc/yGwXuyCbJ/2KbCYzIfh0qnS8N30nSexTpeIPpFpGf4AhPdkE2Uec02UYM02G1uQ/LMGGfpGUZ9IyexRlYiMGIPpFpGYtBDefpCXiH6QlHfZQkx9lCWhj6Qa0ZD9UtBXKh7Lp4ey6WGjKsRgNCMMIjsDQhCBQlmFdLDXTQ9lyIeyENg+r//xAA4EAABAgIGBwgBAwUBAQAAAAABAAIRQAMhMTNxkRASICIyNFEwQVBhcoGSoRNCUoIEI2CisWIU/9oACAEBAAY/ApmsrjC7yqmlcK7lxLjK4zmuIq3atK4jmuMriXcrAq2fasK4lU4eH1lWxVTV3BVuM3USuJVtCriFU4eD1uW63NWwwVfglTiqxFV1Ko+Abxgt0Ks+F1GCrrVsMZysrdqVfiFRW9VMRJUGVeK1FQsMrC0qLj4xB1YURJarLevjdVnRREhqNt7/AB2IUR21Vp8f8j2sStY/4BqH27TUHd/gMQg7sif8D1evZavSViTALdi9brGhWtyXEMlaMlxDJcf0uP6V59K8+lelXpV65XrleuzV67NXr81evzV67NXrs1euV6Vx/S3mtKg7cPnLB3YFyjKF7lFxq7gtWiYXHyVeozEq9Yr5mSv25LmB8VzP+i5n/RcwfiuYPxV+7JXz8lfPV7SK9pPpXlJ9K8pfpXlL9K9pPpXtJ9K+eqqd2S3f6jNq3C1+BWrSMLT5qFrOiDmmIMoWdgGyuoOFirqo28RWpRtDWjpMalK2I/4tQ1g8J6r8RsdZKA9FHbJlHO6BRTOr949g57rGiK3aJgHmruj+1d0au6NXVGrqjV1Rq6o1+QDVIMCNLd3Wc6wJzdTUe3u2XH9VHvBAjuTX9RKQ6bRMq/QG9B2DmOscILdpWEea46LMrjosyuOizK46LNcVHmuKjzXFR5rUJi4mJOlj6IjWb3HvTqSlI1iIADZge9OZ+0wTfKqUh12g2Vd7JuM5TD/0nD/1KA9No+Uq72QKu6XIK7pPpXdJ9K6pPpXVJ9K6pPpXVIrqkV1SK5erl6uXq5erl6uX5q5fmrl+auH5q4fmrh+auH5q4fmrh+auX5q5fmrl6uXp9K0QDuqpMZUeWxFRlXaLt2Su3ZK7dkrtyu3K7crsq7Kuyrsq7Kuyrsq7Kuyrsq7Kuyrsq7Kuyrsq7Kuyrsq7KuytVwgVSe0q5uwZZ865UntKjz2GiWfOnBUntKg7GEs+d9lSYSzdLj5y1JoE37J+EtDodEZekw0Cb/in+mWcNDpekw0DDsK35LWaYjsNWBMLVuu9uxHpTvTLYzNJ6dDcNnecv7bfcrecdBLqo9gXQi3qohQpN4Lcdtj0p3plm6GiXpPTobhsu1rYosowKrYqji8O19AJtFXYVWmpMOsQ8tjr6IgwQbSVjrtNwR9MsDobL0npOhmGzGAijSUZgT9oOpTZYNFffX2Ad0K/EKV2p0jo1bFrPdEDabgv4y4XtL0npOhmG1B2aqIKjSGPl2MDYo0dY6KsaqgLe87bcF/GXbgjL0npOhnplSxrqxtMwXtLtTpd/pOhnp7SsgLjbnt/jbabUHNtCDxssQwmHYy78NDMOxi4wChRD3KredNRIVZ1h5qHC7odJce5FxtKonvFVIIhfj7nbLEMJf3Rxl3YaGYdi4GwWBbjV/cdkrvNXbclUNXBRYdZVr8Tq+mh6rsVG2ieHGOSZjs0fum+8v7oy5w0Mw7GLm1qDRAbVdR6qNp66C02FWRb10fkeIdBs0fume/h50MlbNqj90z3/wCeIsm2JniLJtiZ4gU2bZiqPxA4ps23FUeMwZh2KE23FUeMw7GYfivebbiqPGX907GYf6ivebbiqP1S/unTFJ6ivebGKo/VLiZpPUUfVNjFUfqEu1DCYpPUneqbGKo/UJduCaZikxTsZv3VH6hMDGYpMU/Gb90z1CWbjoMxSJ837pnqlhoI8ph6drRrX6sl+rJfqyVjslY5WOVjlwuXC5cLlwuXC5cLlwuXC5cLlwOXA5cBXAVwFcBXAVwFcBXAVq6pCbjLE+WkiXOC/tsc7ALl6T4rl6T4rl6T4rl6T4rl6T4rl6T4rl6T4rl6T4rl6T4rl6T4rl6T4rl6T4rl6TJcu/Jcu/Jcu/Jcu9cu9cu9cu5cu5cu5cu5cu5cu5cu5a9JRFreqbjLOOky4PVqc39zZs+bgm4yw0gy7X/tKo6X9prURYZqjof5FMHnGWA0x6S5Ye9FjrQv/mpDvN4fMTJpHmDQnUp77B0RpT31CVaNgiY/IziH2ogwIQZ/VVH961mODh1ErWYK81z0bWq91gsaoCzvKDW2CVj02SJjXo91/wD1Qe0hRY8tPkVfu961ff6hX/0Ff/QV+cgr85BX5XMOXMOXMPXMPzXMUma5mk+S5ml+S5ik+S5ik+RV/SfIq+f8lePzXG7NVnRF+41arBAS0euyD1mYOAIVhbgqqU5K9+le/wCqvfpXpyV6cleHLQ15ea1xuXG5cb1xPWu0ujHvTWnvKtdmv1Zr9WasOa4PtXa3WAYCYA2Y9PA2bP8AJM9QngNqCI8BOKbs+6Z6hPF23Hr4C7FDHZ90z1TwG3h4C/1L32Tim4zo8uxI8Af6ivfZOKbjOx69jrdJ2xWaH+pe+yUMVYrJoDs4T0SYJ2K99lyE5rG09nVaJyBMT0C3AGrecSoNEVB1tuy5DsYSXl39rrCwzZBBjFV7uK3t5QaANmFHvFReYoQFXWagFDtYFQ7vAdT9MFBoiVGlyUAICa1nW9vAqB8A3woMENqyV13+wkYFdROWKxWKyagFrOtlIsyUD4t0HVVZy28Fu1+J1BRdWZreC3DFViHh1kMVXvT1aqqVVarEPCKmredkqh4JZDBbrs1ZFViHgFTSqyAqySqmjwvhCqiFU5dxXAVWDKcJXCqyFW5WRVQA8VsC4AuFd67137ferSu9WLhC4RP/AP/EACsQAAECAgkEAwEBAQAAAAAAAAEAESExIEBBUWFxofDxEDCx0VCBkcHhYP/aAAgBAQABPyGsmQBmph9EUHI5ARtVmUbMRmUSSA/SJrn0idBOk97FjP1Ob6DrymfcmlgL2oDt/iA7S+kLQ6H+RCphVxMwpuPv48A4Bmv5crZnMqWfQF/TSJedakayKvdmhJzKClRE8n38PI57leDFLgkIOROfwkpik1oUzE8UBcBGHwAVwoNB/EqdLXCHxZVzFgoSIHVQeLdXAe2utUJFt9qITkScfkLh7jJQ0H32IEEOC4q7GQCsQX2okkuS5+UNWVxko6yzVYEyblGQ+Y/V20IYK4NSjTYrinE/NPeK0jm/8qEWXEu+dsIWi9DB4HvQDBYKZc/PGi4yBcOO4RSgiu0/4B8Py7i6SbP/AIEgoBCAItn2hW7ZmiSSSZn/AIKO5S59pmGU+dVPRgTJKNsJMIBF6o5RJYJxnofjKwX5WyK3AWP/AAuEHUY5ah51ea0PegB9AVhTmClS/iKBz8H6gQQ4Lg1QEguJhYuT7AjlgRCFM1Q+MBZeoeFlkFlA5JB33G5C011f/sQtP2oWu/mr4Ns023Z9q+3c1sXtcPXHFxoW2Hpcj6Ln/Rc16LmvRcr6LY+iNn+IRsFmK3r/AFCCQdzB1THnsBkNkSadzJM9E4NUaMtiOw2LbE1U5iWH3amC6IB4QfZwrAqFsjbkRtbq5Ir34hqhhtpAAEjTuWkKpizFESFMoULC/T/OxNyhfSPK6ocT5XE+y4s+1x59riT7WwPtbY+1siralFI9Xov9aCchgcucEUQjBuTojlTEnCCIkI1SKpw0rz2hVXveANUA5AvQxUgDsTcoX2hCuqXA+Ftj+LZH8WyP4uc+lz/0ud+lyP0oJWpS6xQDDjMUXcwOwogPGAMU+Vr+CmBfNUYXGlmKJquv8lpNczWn9Tl2/iqFA2nQLARI0cBQVXX+SwILreH9XE+y4v2XC+y4X2Wx9lth7W2HtbILahc6FzoXNhc2FxxccXHFxBcQXEFxBcQXEFxxccXNBcyEf6a4E0kcLBVcZwUHErA6cCtNV8XzRZznBLglwC4lcSuJqYiq5mZmZmZhmZ4QCwrZZ1XylDNsKt4HlCdXAo6QeFNutqv4xQzSXq3i+egkKqBS0RaX+qrhYXQLh+sNuVbTjz0kZVMB+xOyLTKs/sKyQ0X96aapDsvDWzxqzhdATtwIly9YDRioAOmbtSsi2GNW/IHo4sKyuhdiBge6KmhAvdDl5mCxPoRP6HZ0LyVusRVmm3D0aMXkVfWumkUZJA3Wo8mUzDC6zoGwgcAaADoBuoTEYuz+pxBBFoTWDGtT2AcLRT32JW5xFWcWPQswavr3TT6NvoicrAcjZgjhHUgzEdDxxEdRRGK9jsNyHgYG5wXF1yMCgIghaEPEoteFLe4rU/IqxYIehwMKvuF3TRfFEuEwWssvvYAhoyxgBgOgWbXoAakF0oyZ1y2XQsQwBybkYQJDgC2ls8VPzfyrk4vCJ2XVduF3TSfFK2sJBYhYO/EFCtsSQ+g7ByNygQjwovhiE1gheSphy+zsF5FXJyIb4bVfeLumneOwB3RsDOolNQUvPVzdRvmVfbLumjUgHpaihT/oIEGRelEeFFcEfpiOFbsTFx6EsiX6aArUKubhgSjfOVfWfHTR6IoCUQFpQBM7JKw9cIDqac5gV+ASMhHqAJGB1NTHTITbtP1OJG4zRuUNKVr3irtGkeaq+s0bAdANRJWXWQ1iG82BBxKTcspA/pEyk+SxKRjdIokwBBFhT0WM5Gzo6Bh5ULeRQqxEgASMnQaEXlPssWj8Ku+JrqvrVBBepj74LQWQOICwUoe3IzRIgSeDugEXAxRvFZAgCSwDlRcDROjOgG6bn0txgau190Z1fSdIspANUiX6MFwHQUG4yWyxVcmFYmZIzWiPmok0QGo68ryfB+PMlMXkeagTQAp68rXnwfkNYvN894lk70AOxqC1X8q4DqZWNaWqPnum5QAdS7BNZYHEgzKxqK1Z7ZLIl6A7ImtHrpmocxWNV8qVm7RuUAHQDdglk79dzhWFfEFqxtsvXl9h2RL0Be7Jot7gtCq4KFqxblep2emaBnQDdglkS9Ld4LTquLYzoWLECsbtetQ8CkTQHZHsl3a+ri2QgiX1hry3mFAmiB2HZEv2dBW5X1cWGBDrVldnh1NAB2Se3LyreL6sA5ZAMGTxLq0ACWTvQHZE9zw1tl9WYWDpkONYhzB4COFiKADpm7BLd7wVonmrZDj0xuKsBoeAgg2RmHUEF10JcKuHC4ce1wo9riR7XEj2uJCPFrdhboLdBb4LeBbwLYjoPIrkVy65dcuuSTVxjuStL81Zy6dWBhari2OHhGCCom8WXO1ydc+XPly5c2XNlzZc2XNlyRc8o9fa3BLilxnVV3oWwC2AXMBcwEajiBIhaPVswFuudY1hMdW3bMbNbEA3DVC47x81bPEerN/DVdjbg5FXYfit0QGZwODWgAcxJ/gP6sInPqNWwvDdWW8q8lUWQrGKxQ1CUZ/D6rLDuuSoL7shYEwG2XqualDHMViHkOIuIeOOcETChpcGCBzQYTbRxVQrgC8lHzhm5WxqD/b0IQh+pDoYDAVV8uqODZrBcsWgsRy5xWJlmkBYG+nkt30LEbsFjt2C2x/Fvz+Lhx6WwC3oXOdbN5Eucrm/SZxM97SJ5/tXJVNQ5lAEmAc4IuA5kz9IeaGtWeL6jhKrOBiiHUTBmNWKZuTru+adu9oWh759YaICPTDaSMgtuFswt4FzQ9J9MwIkKVBgt1k2F0Di9ftWNOZJXj7KxheKOJDf4EyUzNG/2+aPgLdL69cU7mkA5SIZGOzBb4GEOJF+580fHW2X16b5CnBsh+B1vytQoz8q0TzXr82jTemnEPgdU8qXno6AtL813CER7NxMx8BuF68mjpS0GuxDPx7MOT8ay1aFjrMTbuk9H3LWPKMUC+sALACwgn3BGBa0eVBkutNuPQxU71Y1m25IBgw7JAIYyKKWzZlVJIFkUTWp3pgWAXlECwXBNT89HVDytUKYBagGcKpsBHbjwXVUOWHYKjAoh4S+ZR9zOJT2JXAIdhEXC6iz7h5WsrYhJkj3UL77A1IxB7J9oiaE1HgApHjJ4wCZRLgKBLBynLObAnTS8ISGYY2BWsggOSgAt2nunInBTrTSNSnhNEph3pxIAC16fNJYEIMZzdQwECwdgkib1GBUchd3yYf+KwhYb6mTWI3SshYKwCmPYHiK0im2QosbljFhoXygLGpQAI1Ebu4RZ/trLC5MuCwAsAsAsAsAsALACYXBMKsBAclAbFu3VMgEMU/Zowgg4/LRYDEKAMbSqzCcxUch3WoggsQx+SL2V9i/wCrQuCcUFHIFFWPm+OuYvSIRsZIAAMA1dADACMVGnHgrHijTGzD4iZjXmCtvqSWb3/BkAGIcK9JP8kv5cpqZh8B/KS95C9JKk8+KIBmp79UETN9iL7QgpfQVMvoijJLMVMAmQUg/NXEzKJklaQ5Bf3orRcHypmjZhEk/xRN/tE9gfaDt/atxArSiA6gOgG9W0nvFDkoDtn7QGoSg/pAASFe//9oADAMBAAIAAwAAABAAAAAAAAAAAAATdwvOEf3ZL1RIwAAAAAAAAAAAAAAAAAAAAAARDQ//AP8A/wD/AP8A/wD/AP8A/wDBkAAAAAAAAAAAAAAAAAAAMff/AP8A/wD/AP8A/wD/AP8A/wD/AP8A/wD9/wAAAAAAAAAAAAAAAACp/wD/AP8A/wD/AP8A/wD/AP8A/wD/AP8A/wD/AP8A/OkAAAAAAAAAAAAA/wB//wD/AP8A/wD/AP8A/wD/AP8A/wD/AP8A/wD/AP8A/wD/AKYAAAAAAAAAAF4//wD/AP8A/wD/AP8A/wD/AP8A/wD/AP8A/wD/AP8A/wD/AP8A64AAAAAAAAADf/8A/wD/AP8A/wD/AP8A/wD/AP8A/wD/AP8A/wD/AP8A/wD/AP8A/wAIAAAAAAAAM/8A/wD/AP8A/wD/AP8A/wD/AP8A/wD/AP8A/wD/AP8A/wD/AP8A/wD/AMsAAAAAAAP/AP8A/wD/AP8A/wD/AP8A/wD/AP8A/wD/AP8A/wD/AP8A/wD/AP8A/wD/APmAAAAAADP/AP8A/wD/AP8A/wD/AP8A/wD/AP8A/wD/AP8A/wD/AP8A/wD/AP8A/wD/AP5wAAAABX//AP8A/wD/AP8A/wD/AP8A/wD/AP8A/wD/AP8A/wD/AP8A/wD/AP8A/wD/AP8AwAAAAA//AP8A/wD/AP8A/wD/AP8A/wD/AP8A/wD/AP8A/wD/AP8A/wD/AP8A/wD/AP8A/nAAAADj/wD/AP8A/wD/AP8A/wD/AP8A/wD/AP8A/wD/AP8A/wD/AP8A/wD/AP8A/wD/AP8AgAAAAf8A/wD/AP8A/wD/AP8A/wAvxAx7i9C+40Aj/wD/AP8A/wD/AP8A/wAAAAALf/8A/wD/AP8A/wD/ANQQASQCQAQCQCQQ/wD/AP8A/wD/AP8A/wDgAAAv/wD/AP8A/wD/AP8A/wDwAAAAAAAAAAAAIf8A/wD/AP8A/wD/AP8AggAAH/8A/wD/AP8A/wD/APrgAAASCCCCACAADr//AP8A/wD/AP8A/wDsAAP/AP8A/wD/AP8A/wD/APcAAAAkgAEAAgAAkH//AP8A/wD/AP8A/wDIAAH/AP8A/wD/AP8A/wD/APIAAAAAAAAAAAAAIP8A/wD/AP8A/wD/AP8A5gAf/wD/AP8A/wD/AP8A/wDgEEEAgEkAAAAEAkf/AP8A/wD/AP8A/wD/AOgBN/8A/wD/AP8A/wD/AP8AsegSNvbYAEkkm7+b/wD/AP8A/wD/AP8A/wDwAX//AP8A/wD/AP8A/wD/APXJJJJJJJJJJIySj/8A/wD/AP8A/wD/AP8A8AD/AP8A/wD/AP8A/wD/AP8AA5JJJJJJJJJiSSZP/wD/AP8A/wD/AP8A/wA8Df8A/wD/AP8A/wD/AP8A/wANJJJJJJJJJ+SST3//AP8A/wD/AP8A/wD/AOAT/wD/AP8A/wD/AP8A/wD9Fkkkkkkkk1JJJJo//wD/AP8A/wD/AP8A/wCRD/8A/wD/AP8A/wD/AP8A/BSSSSSSSR4kkkkxf/8A/wD/AP8A/wD/AP8AI3//AP8A/wD/AP8A/wD/APR5JJHJJJAZSSSSWf8A/wD/AP8A/wD/AP8A/of/AP8A/wD/AP8A/wD/AP8A+JJJ7gpIsT1WSSSV/wD/AP8A/wD/AP8A/wD8B/8A/wD/AP8A/wD/AP8A/wDA5JMYHIGSZIgSSVf/AP8A/wD/AP8A/wD/AP6T/wD/AP8A/wD/AP8A/wD/AOFJImBUiSTABySS9/8A/wD/AP8A/wD/AP8A/s//AP8A/wD/AP8A/wD/AP8AhZJJd6ySSfIiSSZP/wD/AP8A/wD/AP8A/wD/AL//AP8A/wD/AP8A/wD/AP4FJJJiSSSSSTCSwX//AP8A/wD/AP8A/wD/APnf/wD/AP8A/wD/AP8A/wD/AAZJJ+STPCSSVjlMv/8A/wD/AP8A/wD/AP8A/v8A/wD/AP8A/wD/AP8A/wD4BJJSTLwDwSXLJJx//wD/AP8A/wD/AP8A/wD6f/8A/wD/AP8A/wD/AP8A+HkeJJ94SzBwlkgz/wD/AP8A/wD/AP8A/wD/APn/AP8A/wD/AP8A/wD/AP8A6JASSTESSVjH1Ejj/wD/AP8A/wD/AP8A/wD/AIH/AP8A/wD/AP8A/wD/AP8A4NEkkkkkkk/wQMk7/wD/AP8A/wD/AP8A/wD/AB//AP8A/wD/AP8A/wD/AP8AgpJJJJJJJJ0mRJI//wD/AP8A/wD/AP8A/wD/AH//AP8A/wD/AP8A/wD/AP5aJJJJJJJYkn5JJ9//AP8A/wD/AP8A/wD/AP8A3/8A/wD/AP8A/wD/AP8A/dJJJJJJJSk1JJJMX/8A/wD/AP8A/wD/AP8A/t//AP8A/wD/AP8A/wD/AP8AxJJJJJJEk+JJJJB//wD/AP8A/wD/AP8A/wD3v/8A/wD/AP8A/wD/AP8A/wBRJJJJOckpJJJcmf8A/wD/AP8A/wD/AP8A/wDtf/8A/wD/AP8A/wD/AP8A/RJJJJNkjxJJJSke/wD/AP8A/wD/AP8A/wD/APL/AP8A/wD/AP8A/wD/AP8A+WSSSd5IGSSSxJIJ/wD/AP8A/wD/AP8A/wD/AL//AP8A/wD/AP8A/wD/AP8A/Ukkm6RIkkk5ySS//wD/AP8A/wD/AP8A/wD/AHf/AP8A/wD/AP8A/wD/AP8A4xJP8kDJJJNkkkin/wD/AP8A/wD/AP8A/wD/AFf/AP8A/wD/AP8A/wD/AP8AzCS9JmSSSd5JJJLv/wD/AP8A/wD/AP8A/wD8z/8A/wD/AP8A/wD/AP8A/wDkWJJ+SSSbpJJJJD//AP8A/wD/AP8A/wD/AMNf/wD/AP8A/wD/AP8A/wD/AAUpNSSST/JJJJJGP/8A/wD/AP8A/wD/AP8AgL//AP8A/wD/AP8A/wD/AP8AbJPiSSS9JJJJJJl//wD/AP8A/wD/AP8A/wDg/wD/AP8A/wD/AP8A/wD/AP527SNm5xI2/oAbdf8A/wD/AP8A/wD/AP8A/oTf/wD/AP8A/wD/AP8A/wD4EgEkkEEAgkEAgAP/AP8A/wD/AP8A/wD/AP2AP/8A/wD/AP8A/wD/AP8A/QAAAAAAAAAAAACH/wD/AP8A/wD/AP8A/wD4Af8A/wD/AP8A/wD/AP8A/wDyQAAAAAAAAAAAAS//AP8A/wD/AP8A/wD/APIB/wD/AP8A/wD/AP8A/wD/ANWAAAAAAAAAAAAAX/8A/wD/AP8A/wD/AP8AoAH/AP8A/wD/AP8A/wD/AP8A+AAAAAAAAAAACCK//wD/AP8A/wD/AP8A/gAB/wD/AP8A/wD/AP8A/wD/AP0hIIBJJJAIJBPT/wD/AP8A/wD/AP8A/wD9AAf/AP8A/wD/AP8A/wD/AP8A/wB/UnLCgd+27xr/AP8A/wD/AP8A/wD/AP8A+wAP/wD/AP8A/wD/AP8A/wD/AP8A/wD/AP5c/wD7f/8A/wD/AP8A/wD/AP8A/wD/AP8AoAAQ/wD/AP8A/wD/AP8A/wD/AP8A/wD/AP8A6f8A6H//AP8A/wD/AP8A/wD/AP8A/wD/ACAABv8A/wD/AP8A/wD/AP8A/wD/AP8A/wD/ALf/AOL/AP8A/wD/AP8A/wD/AP8A/wD/AP8AwAAJ/wD/AP8A/wD/AP8A/wD/AP8A/wD/AP63/wDb/wD/AP8A/wD/AP8A/wD/AP8A/wDgAAAT/wD/AP8A/wD/AP8A/wD/AP8A/wD/AP8Ab/8AZ/8A/wD/AP8A/wD/AP8A/wD/AP8A8AAAAv8A/wD/AP8A/wD/AP8A/wD7FmHf1tpdAbP/AP8A/wD/AP8A/wD/AP7wAAAGv/8A/wD/AP8A/wD/AOcKkkkEUkmEklsP/wD/AP8A/wD/AP8A/QAAAAP/AP8A/wD/AP8A/wD+8kkku8Okl8kkkkP/AP8A/wD/AP8A/wD4AAAAAB//AP8A/wD/AP8A/mSSSTx6S/LSSSS3/wD/AP8A/wD/AP4AAAAAAI//AP8A/wD/AP8A/wCNJJJJJJKuJJJLr/8A/wD/AP8A/wD0AAAAAAA5/wD/AP8A/wD/AP8AzQ97kkks0liZyf8A/wD/AP8A/wD/AAAAAAAAABp//wD/AP8A/wD/AP8A/wD8zJJJbD//AP8A/wD/AP8A/wD/AOQAAAAAAAAHx/8A/wD/AP8A/wD/AP8A/wD/AP8A/wD/AP8A/wD/AP8A/wD/AP8A/wAAAAAAAAAAADAf/wD/AP8A/wD/AP8A/wD/AP8A/wD/AP8A/wD/AP8A/wD/AP7YAAAAAAAAAAAAIP8A/wD/AP8A/wD/AP8A/wD/AP8A/wD/AP8A/wD/AP8A/jcAAAAAAAAAAAAAAs7/AP8A/wD/AP8A/wD/AP8A/wD/AP8A/wD/AP8A+jwAAAAAAAAAAAAAAAAGtz//AP8A/wD/AP8A/wD/AP8A/wD/AP8AoTAAAAAAAAAAAAAAAAAAAAHhKG//AP8A/wD/AP8A/wDA6YIAAAAAAAAAAAAAAAAAAAAAAAAAj5+4F+bzdLAAAAAAAAAAAAAAH//EACsRAAECAwgBBQEBAQEAAAAAAAEAESExQBAgQVFhcaGxMFCBkcHR8OFg8f/aAAgBAwEBPxCpEgFICRM4IY6DGQCm6AcEBoB4PhAeBaCYXGZJ/BEmD4RNgRKhLgjgEo5eCBkQg0mBenkGAdYc26OgCblSIEABKqkR7GE4CHwH0nxgh+pYa+6AAwHovh0zKSRRBgb0A8wOjIkykQ9LCsDqIQKOM40rDMCiUZQAYD1CXlE4xyiCCxpzDDqMRFAABh6oAgUdERSxowCbwesYSlHWI0WmskA0vWmoZ50OjTOHrr4Iw8xFTIIBoevCgzCIILHyFBiIbD/gGD83kiiZ/wCBAQpFFOfiKJAAAw/4KB5jrxRHM0oAcqBRIiQCOitfhaq11r8L+TL+zXMtrlqFqFrFrFrPlaxaha6xAOKAkBUPgQL0hAIYo5vAOEMUAABS7DTyZVRxjEIYpFI6AYeB0iwpYAkKyKJGkCUsUBIg32EUjnkRLlzWAkFwmcMaSN51chNXTTpSbCvOH2aWb7VxRDWkEYsUQQWN1u1jSzfb1OP2sbhAAYoAAApZv9jZpvlaL5Wi+VoPlaT5WkWkWhWhWhWhWlWlWnWnWnWjWjWjWjWjWjWjWjWiWiWiTu3Cl9lL1txt0jTfy3RlTm67na+qlfdI3I9Mf23RRnSl16RuVP7KV4zIhi1rDszUaZRksiXvy9zTxga2sLSoU6iOTw9hXGpmn5iwGAgGDVGm70BLIl/FO3P0uBTQrBga0/Cs5h8Eb+WCZcxvHJZHwB5OiLe5h4Zu/wBBTNqZx2RscflT8SznG7lRnghT9gfqk0O7BsbtO4SyJe01SwYfiAMDhRYdlh/iKMx1f5H0FN2pmFYMan4lnJPd3RbIEEOLQGkGItOS6DICNoFhwiigEYYXud9BTtqYHRYMSn4Bs557ugLBLIYAmIWskYBkSyJe8cuI6tFDuXkgFaE53ub9LqpxYghZ2tPxjZyT3e+cozRogIKAsNqbB740RiEwBY54IO5Odv1S2ASF/nrqpxYGqBhp+EbOQe/AfKFmwN0ZlzQuinFlC1PcQ2c493iWRL3ZEJRBM/gogid4LRAS1P8AiOxwKI8DqwB0A1nTUmnBlFtoU83azkG6clxjLlHMVtB+qTffaZrBbA6lIdp+KHNwflphTiUFSBYzBPohmudD7Uv3p3B2QttU82zkWksiXugYiZlOhjtGQY1KnPxggDF8qfl9x+KGC7hABwXCbc2djIuvRtbFyuHIpPZ9qX70747KRTzrObYcl8ogESFc3iGIZIWCDDKwBnBBUWyIkAOU5FxifqwlkS9n0fa7XVO4glTyGw230S9CA6AawkDE2G4m9n2ux1Tg5qDKz+u1CHXCWRdd6H2v6benlGa6PQoBcFid73CC/tt6hMV1eh5gHQDXD4HBFQiVIKicuh15RmuEsiX8AcoNmozBUY1E1Tth14wHQDXDk8Iscf7qMwpPsCo5yn7DxDNcJZEv4AHQDW8T7XIp2Q2RvsVHIK6R4AHQDXDk8IzXeF9hcynLgieoucVK2H3fFwSyJfwAOgGvcL7C5lObmicajkFSdvs3QHQZcPhDN4Jm32FyBTm6iiGtRzFwPs3A5M1rsi7wAOgG8M/b8XOFOTk1KOTao5C4v3aLglkS/gHjT9j9LlCmJYOiXLpgxpU7joB0A1w+AA6DPJ0FcwUzy0saqL+2yCPobhLIl/AHJm8vUVzBTMWTg1qOl0iRMg62PlbHyjmD5/xaw+f8WsPk/i1x8n8WqOfxaLn8Wi5/FoOfxaDn8QyXP4tFz+LRc/i03P4tJytJytJytPytPytOtOtOtKtKtL8JzHKTvTMANbWHNTjH7Vsn1CkmBOlbEO9M46WuZSncHLWtymc81resKcJSxRzFhWMglS7OVnjTGFWyRLFAEEhStjmrfB4EokwNTgEyUYgCYBTPjkuvlkqQDA6lgZHCR/8A4X9Mm/8Ai2QgFgcMzWoWoVqlapT0CgBLEreW8t1aa00ApIzVDpdQjP0EozX9t7vcuQK5wXiADBCEGPoM5S/e72LmCuke+/EGHoM3dSbvauYK5xvmx5GHoPMK7bs1Sd610zMPC3+gOYV2XZ6k1sOSHhieR7qWKcnXf5BQP70xMTExMF7KVc7k6nGZCSS58IJBcIAKUEZ4CAOSjBIMyp+92d7dqVfYjSIfkO/HDjI0gDeA4xLlQwWR5zdFWB00Jrsz27UjwhjRRwTMvLm0KIeExBEXU9huo3EhrA1wlpqBxHhG3N0CMhn4ZKEAEpIuSw8pxTE6RPGiDE7+bTqOsOUEdKADAQ8BLIl6F5hDmg0PijOssTE48MgoWwtddOEyySonOQ0LoEGaRqXTlOU5TlOU5TlOU9OAHKCLgR3RgkFwiDtQBycerQwxOSNZMqY25qBwnhAghx6kNiUPhHNUdiRkAZCnJ/TsYc6KGwBEklzWgicFTeKyIgrk/pEwTI/KmT0MEguFjr7r/OWPNupof0CViHkdHyMpw9KBIkpASDmxQUETcKRIJI0ZIE1NgQKASBsZiTKZn9VApFAUiQGgCicAj8AiECNpKIEChMAjoInxROhJMvlEkzrv/8QAKxEAAQICCgICAwEBAAAAAAAAAQARMUAQICEwQVFhcaGxUJGB8MHR4fFg/9oACAECAQE/EJmKGUUFBQc/CxIsCKJIMiX+AiXGiWJ+0SRL2nsU5qaiAYEoAgXtAGP2gH/KAcR6QUQX+qiogihkDPfjwjkyzdsv3JQxgo+okmM1FwLO26EhHhQoQoAeI8Es9iyVsiDk/hIpKBQeFlbdBXJ/ACXNkFYL7rLzxZtyZWLbCsd2Os4Lt/GKs0GHKIOTnyEcWZKxbB4QIIcS7uWCw5GeKJJOfKG7dmWCtZYZWz1v1FOhfzGNg5CeA4krXFxKJJLnzTsgykf8bW4nzvvogGFfWfE+uiSS588W1ij+0CCHF4ZwgjDG/wCAcHo/V5lsI7/8CcUQIAhugn9d0SSc/wDBWkge7puCA7lSEwOVbtlBxChkn2tHlaJ9rR5X3Er6iV9xK+t6Po1o1pVoVofS0vpaX0tD6WhWjROpL/RR0RCtCwRBBYygJBcIQbiEx4IhCiZQVU0Is5oU4szftHALRKNkeNouGgHG2VE/j0nA48I7ShBDggADGvl5KN+YoAAMJwAEHFHKeEpa6Im/HJ6fdZTflZkDeV73U8NtpKFCOCIACKu1LJXvdTwcsrtCyoIhYIhCxle11RrPS1i1C1S1S1S1S1y1y1y1y1y11+kkkkltsdYYqP5/iV7GpvayW7HSEuTVi/Ch+f4ld7WVOUy3e6oEJUmtHXdlWMMEC4cU2ZkJb6tqBCTJuOhcuWdulO/0x4EkTc9C5Es7pGh4yIly8ty6IUg6e66lypa12qHjpL82iDcRRHIuKxNFkDobauYey5n4lmmZg0NMzIl+TRB2qxmjwD3SQfmw9UmkwY4QJBcKwrQ5Q1yrwdlC3/BlnjrR8kl+aKOIKupHRDRpKMmNJNU1nE0gkFwnYtK0DZQ9/wBy2khosPSX5Yo4Qqkxci1EOc6SvHG2gmscgGFTTCWFbgKBvLsJ0ROzSX54o4wrNZAzYQgE5Pona4ADFAF7QRy0MmgK/CXcJc3Loif4upfkjujgC4JvTs1oqgUDuEub/bFE+/L84d0cQViaxBErTIEGFZniFHFECCMKAKgi7iXJx3KJz6mX5Ao4FUmoFcmCGLA+ankAKiJfdWTA0jMWCOYsaLV4oCpF8lF+Jdoxr+kTk1MvzqOFS6eqYAwCNsKAI/VBNIoYGVsW0QQWKjgofZfbaXWWdQlR/JdbuXdBr+lbKXhVMTXPuFqAMFlYdbHNFnFpoAYsUdg4zQBNgR1nakmj8y6HcuyhjLwKCUTJAUMBQTUh+S6HYl2hMCMmgKpNWH5Lqdjx4QhI4CoTcT69/IQF9W98BVJ8BOA6iTEJQb0CoTcgLnLhy7yAxjWY4yh3bJqhNyBRzFw5d9OqBgamY4Au0Co6e4AqcxcWXdDr+kDbpmOMOl2XDICoTcgVYe64MuPIoG++ExxR0u6uBVJuGTVoe64plxb5u0DHsJjhhR96wFQm5AuIe64ZlwbbTRNJjghRd6gFUm4ZAXMDdcc9S7A0C5qY4qib0gVCbkC77FwT1LAOWQDBk8ByMxx1ykBVJuQLzsXGPUs0dRNS+veqCU9wBfd64RltpUbGGY7HaH5q31uI6i3lpFaZWmVplaJWiVolDJK0ytMrSK1i1i1i1i1i1S1S1S1S1VCbEMuIZZ7KCnSwy52fmd4hlmc4ad3Wy7xDIzpsTQy26raWcyOpd8PH8Trs+PctpwKWXIZcwxwQDCM4+QO5ld1KmwEw9xXE24UcAjqIZVwyCrvDMYpdEJdeXJADlD2tuE9O2WcM56qsOcdTJVyYqKl91iOab/v+L7v/ABP/AN/xfSVo0CmCgZQsWiWiWk5WkOf2mTBmRhGAK0Atr0tr0tUel9wCJUjkZjQ0VdnW+BEUIIeLqr1FcE9T3vz1WEYsUU5YeBhLrdVeorjGeim1eysD4HiBRdhV6iuEfCovbRFvgeEF1CrB2K4hnWN4C25fMGHgOMF1CrB+Vxp21MelzZSI6mQbBCjH5rem5puaBgaBBcOVSrWQQHdC5Let6fnQEGCIIjLFH9sgAAwuSAQxRT4cNpQAmCIYoCQAEK4BJYIGEHJdNWGolckwRBCUzQPV3bMQlBhcDXFgQMboSwMgDkyG/BVhqA3OCkitmAigGvMnDwZImINyeBBUDtWSEUcnqRVoWQgzAjZzbclIhqIUIARxvSiAU8UMJKCKAQX2t0FcmRTZ7IkTm4BEjlIt8VxIf+ekk7ICQzhBGqtZOLiOkWcqrM1rIpI4BE0lYB24CRYjYjTxzfuZcp2a1FrLWWstZay1E7NOZZtDlDx3STIBDFAPR+kdYY+WNuLBmgjBbnLAWFWjaHKIILHyRuz+ljAeEA0yGsoa030KIsLeOtNmGqti24QAAYToBgdW3YKz0jTC3iPz5Ysb0eEiIAxCyRsv6SzdsrDBvARoUQAKISeFA4eKIBsKjIo3EEb+KCgx+VFDUWBJgEwUEP0smIuAELEKzpuoaDysSARNEUT/AOkS4H2g4E/fhQgn78IRBFIDopR4lRgn78Ia3tAf9FAOFQAPSAAhPf/EACsQAQABAQQJBQEBAQAAAAAAAAERACExQVFAYXGBkaGx0fAQIDDB8VDhYP/aAAgBAQABPxDSTZB1orqYfSvFB20fkAd6Zz4a5YC71gDYParw3DFXhxVN+Xa6VvXaqUvXH1lLmgbi30XINiougb1XBvG1cSbQ/VXxth+qJyyT7ryD6ro2j91mVkhXCmDQzd/OhQc1FTJbZGf8oVmuIuRWCXadavp6iBypFKVzXSufSFY5ORGuKKnuqzGdZJyqLlHCw8H+POgRgZeBRJG1iDgVJGxCOd9SIuan+JdiGEycKgg/MtVHmoGziVOcsVJ/AhYNba7qnFPZnCpAEtS/l6/wKKiM0mziqHUnUc7qESS00ufGYDat1SRM9au1J2q9Uv8AQUJN+pD8dl2oEJLkZHR1Zni1Pi5+92pUpL1ZX+pJGzWy3VDWpiWOx0UthyzZtU5YsDA2H9iKRujwTQ1bsmhTJC4XIa6VSirarj/akhJeXP8AtHpQ3jesnQIVoLB5DX/dJvKswxU2TiDk/MM9ZRqM6VRFW1XH+9AmrQctdASCJImPyMvBy04tqsMjA/4DFpablifJHtjRxybv+Bf6XI1YcwsZOJ8TpuEHPBTNSkq4v/BSq9J/r4pA42stFNHkwwb6THuPUtvKlWDwmv1TlmwH79JPxlLYOyhXB8MqWwnjlSmPz1Uv5vKlPE5Uv/l2pTvFK01O4r9PX7z0Y/b0B3FAXb5GriTan1S1uo9nSpnaBfGXpU4f2uF9xQswJEZHRAbQkiYUYV4sZOPwXTjO1wpGZVV16JEEswXvAKXqBtVj9uuoMdeOm03G+jIzYTpwNLLG6h/VGEti1gHsb7rBDYqH0CkxDdSfQjQx12GhiJs7lGO+ykxV2dmjGpjFoBj+ztWqpcAt9CLntX6pnNl9lNDCuB2aH02IfcA502xQdbTMp0zW7xZNlDyghok0LDvy/l0+Cc1r3Rd5q0W3AkQucb63U8eFvZyOt5E0EhLCidbm63SFpAuYbNYNJyis8HdMSr9Pmb4z1jRLwYHbSIyAjq98CMh3BohL3cFJpUZRVcVotsyPFbRwh8DPJDd8CXpSnNLIQ1oOno8MSjGP6Sxfh1GLTE9rGr/dS4pW8QDY4iPqbJOQiBerDnlUgAl81EjBjeaz2nvQUi2C7vlvCoKSIYJaVgspyk0SJa04MPNXujpgQ2mw0VQr+KApjb0BQgwJNQR8APLDd8CHrQXNba41gutOH7IxUsNzum+juETJYZEoADUB6hhEsIjNjgj1q5qVZMKrnYXe09JQHEbGnvMvvD6pUGXm0nJ0ScTcN5affuhO3ndWH3ovmMtRZ7vtNMEIg55P3W0K4jtol4QFDVSAntsGzAd1/OdF8xloF5g1Gp9gF7dcGkOBSPwvQ2yq79rvpw+L314b904Hk668T+68D+/i999yyyyyyMb0n0xKfN8vXRRKwULBbGytll5Oi2yZke67lHsK6jLdSX8Zd+iji9Or2Km7qv1Vfuq/Q1+x9tTe9+NX41flFflFeCd68E714J3r9k71+yd6/ZO9fsnev2TvX7J3r9k70Pc/DvXkHevAK/AKgxtN4TbSsNeilujkej9eyxjDE7/8nRvD1auNtFpoytrYUAEHsEazoqVlqWir02Se/wD2PZEVvFus+3RhOw6dF5VvZaICsFCX2vuMa3o07LynRTi3kNzQALRJPXVET7+9GM+ZYovq1s2hrqFABZ7zGsrVln1nRs64jus+vXFKUGws0YTsPR6W21OmghN1QWvwmBr6zTsNXRmvgNzb6G1cjwpEV6zoxnx3no5TyjQE2KBc+I73qNKy8WNGhzYHm/02nTjZ96OZ270Uv4R71AlYKSlxrPKi4Uskwck92JwehIeRBhZW31nBBWbQ+E76gdlm9GIvIvv69NVm+/rRxPpDlfKD2gXakNq3FNkg2jwO9PsqwscBZQKwErQmwpoYC+Nf17EuUG16udeLWBZsYUIW0iQlWU5ZGw/TUsji7Noe8W+pQrLNaMbrvGz79I84vA/3RxIeceilvGD2jXbTlNm6IoECzZzRLjwKi7Is9iSW3lpbQoyMJTfylc0x4R6yWtXex4sCV+Z4daHMwZgG1WbkOuhISMMSY06IpEhKGUKF2TPP3G382qVhnowaul5+kuRbxf8ANHMj5S9FKecPaZuYMqb6hPCRZIiRMbSmCrQJt8Gv0EBFwOVgdKBWyh1n3ASu5xInjHGmjWKKsN5s1XeiCdUJOpzoRWg20XTPuFp4tUo1vW0dqTXlUbkDm6OZPyl6OX84e6NCWl8VKjBqquEVMyEl+2uNRgBBYBQAQe8BJZFyUhMskLUTc0CxUG8iaSyW1C1fR7+b9aUbX06Ps+HKtgA5GjmQ8peinybHvBWChLW1+W7mKLnOHGPZdUlhRtPCaUaz69H2QE5tSHZ4aOJDPqPRz4Nh7l1CgAs9vJMShUDOrvULJDMZ9z2RnBflbXpTkZAqylj1A9Aol70Nv5SUo1vT0eAZKpH5To5ks+u9FPlWewJuqC19l/VRIKbeR+7upVtrF5BSqyquv01kCYeVIgIYMvG+l5SxLF1OPre4d7qWSVKpqD6km51xKjWFEywPcngVgcXsFt42Uo1vVaPG8n0KcnPqaOZPPovop2T1TYoLntNqyQCL99WFje2bRoAxKsji0SGs09TQUO7BQjrIvRmgkR5OTjTZrQhCNTkzbWYYLiejOoy2QmkFKgQL0m2k1HeE0I5YWaqKxMOGPL2YnBQ4VCjXdZo8RnF0KUtmuujmRz6Ho58V/picHvgrCJCTJi+hapAEB7pVAXGxtzKLuVgiDIPSbgQamr1gscka8mhSEuAlqU6xXwm9cvQSsoNr0N6hRrDR1LniwpSnXo5kM309Cx8/VoNrQVAlpbFx6EQDmHpJa0EEHqLTXQo0eE4a9IEnrVebac+Za0ESwtaVWX1BWyh1n2i38YKcbfR8KaRaWyhAa2lOw6nzqBLSthYexW1sKACD3C084KcaRk2KaO3NGAyfWnO063zDtUpW+oK2UJa2vwG38IKUbT1aPAmhAZLpBgcupTnVdV8l1YHsLsUALPgEsLWmqufpTjz3OjzTroQ8n10gQeXVaU6jr/GFE9V9Yjw+BQJaVsLD0FtrdKUbN0dHkWv0KMDLraQIDLrqU6nr/FgcXsSgXPgHapSt9b74tUo2PR5Dr9CoBrukGDy6ylOx9HwIFtLsezE4PhwDj7R5c1OPAt0e1Li3kVAM0eRpAgcuopyOXSPeBYWtLLL6iuUO18AXqS97hw/VSjw7dHmOZc6lOa5R9aQYDwlTk8vaCgS0rYWHsktbKACD4MA4/AeH6NKE8IaPHdvizUOpvBdIMF4zSsMl0ewS61pVZfUFYKEvtfgRepdj4fBZNOH8IaPqxLlXJHTSBA69Kyy+r0UCWpLCz2K32FABZ8ENha0ssvxeWyacJ5Q0aBF6xUCLgitUrzHSDB7fIp2GR6UO1Slb6hLBUFrf8CgS0rYWHyGz4WNKE8oaNrr63prDDmNIMDWVKCzuT7F2KALPgG5a0qsvyi34X04bxho2qMlwfTUsDhpEGtnVeMqtV0961XhtrV8DvQbVdUO9fkO9fje9eJfftuTFDjwz7pNwbu6vzO6vz+6vL7q87urzO6v2O6v16frlfhq/DV+Ir8BX4Gvz9MHCYBuqwvnDRti1xf8APRJIrXn8Do8pzPIfVHcWQ6NcFC3ebqoe7xdVTeHyrzP6oW7wtVeFfVeFfVeFfVeFfVDXeVqoXzOXoZ+9ofvqE7v1hsWn+U71+ed6n7Z3rzO6hO73V+z3V4j915j90rbxABbC5rwOZo0eVeA/311bYN5o7wVhW6xf8olUAhmg9NLIptC22vqkMvCcGjSfFq4+tkV/wP8AujsQl8g1hxpjZgIMXYOJo1ZALkbR0q2HcsgOZPBTHEm6P8NFvYrU58nrGpabubO2j311Tlk7qnQJ3KASW6fs6NmkkeSV0M1yoCURSXNnA5zSR9issXGDc6LYrIldha+yx6VY23mkJa+Id/eKBRJKEMTJqx7AJ2zlzrLNlXGJBpvNFSml4AKjbtziOtLDe0aL3NkHNYvCiKUjDYe7hQLTgYBosrFnPbO/tsygWNl5y0htEWpY+vJ10hKboWOxua15kD5UIHGTmBqTH6qN4Xpi1AUry3Z7KV8nSlu07UtQV72lfC50vf4eulr/AB9dK3r5Z03pvLOm8Pt79XgtvepS99vcpKX9Y0dclwJWnqX7Gy1YN9Hn4hZri6NIRbZ7CzrPtgEsjdp/kaSvcLxDnT6tak4MlNbD1fQlODvqjEO6jEvYaZ/D96MXgO9EhUFiFNjFLtwoEFqfVZnC7KPBfVfsdlFEBqFFBIRyDKkyTGZCg0Z7udqCxW72oDE86qBxtqoOLt7lMyO8yWgI2WaOCWCs5Tnbjz9s+Cwblz/BEszKEHkq2ADz+268bGlC+UNOnYkbgW+4x5Ut9X7KW7+CdRBzqTVDze02vO+lCeENOsBX95+vfCFeHaX/AF/BEDl1VKRy6/tG7pcN4w00JYKstsS2m1981E8uv5fwbPk2qU6j6faPHxqwvnDTYAk8uu5/AgkN1NDX9y/wPOZqXD9ft8znSh/GTTbOoefp8MUedr0goX03rjUlm2FOELdTgPjXhNahxrU6Urn1VCwOdsPbEAjuB21KXknOpZONAx5qMWgXM3UJcd9AuI7NGBN5lZYqAggCAMPhRlIQjjSD1nng0RQSsFCsO01kTZSryu33uRG9ICjLIRLklrx2R7fM5Ksr5T7hS5is/GTVkGWeGiTRRcasHH475lrrGJoawS1qGuPgvgDDKbW4qbzSfdZyrf2ijZlRxHxS0bkvrDDge1AlBYZb7FWdh6/CqydmhKQY5qy30AABAXHyYqGweFuhGEYkUkMPwLJ0QmK3mdRSzi7eB9xUeD5uQd6BAeCD2AiABKrYVFAKzzW1kkgbtgwqEGM5Ybfr4SpcjQXqLgCgxC7c5+WIU4SkEjaZ530Ilc9VNQh8zrCwDA3Fzy3ULu2BNZm8PYbXHdQVAgCA+BeBvoIC1b3QcCDaYe/zztBucVmUuOVc3DQkEhJKyJsr/RKRulvpLHupK/hUhePD4DyXdFE3lZ6qS92t77Ioe5O6h+xQ2A2tJgmwq/hWugAgINBnZiTDW6CrGnE1lJjKthLtukQZVqnCvxq/Kr8ivyK/Ir8ivyq/Cr8ytQcNGcHZgCoMF8XjvdDRAI2I40U4Vets3NOhu8EP9ZkzCFm7OoNI9YdGg1yXE2NTTcs70iUF4kJ/SgzuJ2DfUOuqSxuxoAACAwNJjiGAsTfUuEbN41IVal/80JYKgkn6jlfUbKOxwUCAC4C7TU7VeCSpQeC8KnFasw8GpIbYfxwlgqOQLUudBZK1H21Cxsy14/w44kwSSpZtmKjldT2u4+wqYus3PK+noeyQ0++6r4g4sDi1bQO2XKoBQymFXtOYW8f5QEATJKxXZj6Vy8pHOi3bqjq524etXqNj6Vz8Q0NCEXUVe+36yZzArlTy0flwd6vFrNmuUoH9XlEDXTQCsEGxH3VwbJW7D3O1XNv07Vde9SrsWkh9AvVe7S8t0nagLeA7VElVtPar22x1drbZetcsg0BABqNO/9k=;" vertex="1" parent="y6Tww77BYueJzpExbN73-18">
          <mxGeometry x="157.62" y="190" width="148.57" height="148.57" as="geometry" />
        </mxCell>
        <mxCell id="y6Tww77BYueJzpExbN73-20" value="강사" style="ellipse;whiteSpace=wrap;html=1;aspect=fixed;fillColor=#B266FF;strokeColor=#9933FF;opacity=70;fontSize=40;verticalAlign=middle;" vertex="1" parent="y6Tww77BYueJzpExbN73-18">
          <mxGeometry x="133.33333333333334" width="197.14166666666665" height="197.14166666666665" as="geometry" />
        </mxCell>
        <mxCell id="y6Tww77BYueJzpExbN73-21" value="학생" style="ellipse;whiteSpace=wrap;html=1;aspect=fixed;opacity=70;fillColor=#ffff88;strokeColor=#FFFF00;fontSize=40;verticalAlign=middle;" vertex="1" parent="y6Tww77BYueJzpExbN73-18">
          <mxGeometry y="262.8571428571428" width="197.14166666666665" height="197.14166666666665" as="geometry" />
        </mxCell>
        <mxCell id="y6Tww77BYueJzpExbN73-22" value="선생" style="ellipse;whiteSpace=wrap;html=1;aspect=fixed;opacity=70;fillColor=#66FFB3;strokeColor=#33FF33;fontSize=40;verticalAlign=middle;" vertex="1" parent="y6Tww77BYueJzpExbN73-18">
          <mxGeometry x="280" y="262.8571428571428" width="197.14166666666665" height="197.14166666666665" as="geometry" />
        </mxCell>
        <mxCell id="y6Tww77BYueJzpExbN73-23" value="" style="endArrow=classic;startArrow=classic;html=1;rounded=0;exitX=0.72;exitY=0.051;exitDx=0;exitDy=0;exitPerimeter=0;strokeWidth=3;" edge="1" parent="y6Tww77BYueJzpExbN73-18" source="y6Tww77BYueJzpExbN73-21" target="y6Tww77BYueJzpExbN73-20">
          <mxGeometry width="50" height="50" relative="1" as="geometry">
            <mxPoint x="99.99999999999999" y="361.42857142857133" as="sourcePoint" />
            <mxPoint x="266.6666666666667" y="197.14285714285714" as="targetPoint" />
          </mxGeometry>
        </mxCell>
        <mxCell id="y6Tww77BYueJzpExbN73-24" value="" style="endArrow=classic;startArrow=classic;html=1;rounded=0;exitX=0.221;exitY=0.082;exitDx=0;exitDy=0;exitPerimeter=0;strokeWidth=3;" edge="1" parent="y6Tww77BYueJzpExbN73-18" source="y6Tww77BYueJzpExbN73-22" target="y6Tww77BYueJzpExbN73-20">
          <mxGeometry width="50" height="50" relative="1" as="geometry">
            <mxPoint x="366.66666666666663" y="361.42857142857133" as="sourcePoint" />
            <mxPoint x="533.3333333333334" y="197.14285714285714" as="targetPoint" />
          </mxGeometry>
        </mxCell>
        <mxCell id="y6Tww77BYueJzpExbN73-25" value="" style="endArrow=classic;startArrow=classic;html=1;rounded=0;exitX=1;exitY=0.5;exitDx=0;exitDy=0;strokeWidth=3;" edge="1" parent="y6Tww77BYueJzpExbN73-18" source="y6Tww77BYueJzpExbN73-21" target="y6Tww77BYueJzpExbN73-22">
          <mxGeometry width="50" height="50" relative="1" as="geometry">
            <mxPoint x="199.99999999999997" y="361.42857142857133" as="sourcePoint" />
            <mxPoint x="266.6666666666667" y="197.14285714285714" as="targetPoint" />
          </mxGeometry>
        </mxCell>
      </root>
    </mxGraphModel>
  </diagram>
</mxfile>
